
<svg width="1920px" height="297px" viewBox="0 0 1920 297">
    <path
      d="M1920 12.01V297H0V12.01h11.994V0h35.982v12.01h23.988V0h35.981v12.01h23.988V0h35.982v12.01h23.988V0h35.982v12.01h23.987V0h36.306v12.01h23.988V0h35.982v12.01h23.988V0h35.982v12.01h23.987V0h35.982v12.01h23.988V0h35.982v12.01h23.988V0h35.981v12.01h23.988V0h35.982v12.01h23.988V0h35.982v12.01h23.987V0h35.982v12.01h23.988V0h35.982v12.01h23.988V0h36.306v12.01h23.987V0h35.982v12.01h23.988V0h35.982v12.01h23.988V0h35.981v12.01h23.988V0h35.982v12.01h23.988V0h35.982v12.01h23.987V0h35.982v12.01h23.988V0h35.982v12.01h23.988V0h35.981v12.01h23.988V0h35.982v12.01h24.312V0h35.982v12.01h23.988V0h35.981v12.01h23.988V0h35.982v12.01h23.988V0h35.982v12.01h23.987V0h35.982v12.01h23.988V0h35.982v12.01h23.988V0h35.981v12.01h23.988V0h35.982v12.01z"
      fillRule="nonzero"
      fill="#ECECEC"
    />
  </svg>