
<svg width="120px" height="36px" viewBox="0 0 120 36" version="1.1" xmlns="http://www.w3.org/2000/svg" xmlns:xlink="http://www.w3.org/1999/xlink">
    <!-- Generator: Sketch 47.1 (45422) - http://www.bohemiancoding.com/sketch -->
    <desc>Created with Sketch.</desc>
    <defs>
        <linearGradient x1="100%" y1="100%" x2="0%" y2="0%" id="linearGradient-1">
            <stop stop-color="#FF3A1F" offset="0%"></stop>
            <stop stop-color="#F0543F" offset="100%"></stop>
        </linearGradient>
    </defs>
    <g id="Website" stroke="none" stroke-width="1" fill="none" fill-rule="evenodd">
        <g id="Homepage" transform="translate(-397.000000, -41.000000)" fill="url(#linearGradient-1)">
            <g id="lego-studio-logo" transform="translate(397.000000, 40.000000)">
                <g id="lego-studio-logo-colors" transform="translate(0.000000, 1.000000)">
                    <g id="words" transform="translate(36.883117, 0.000000)" fill-rule="nonzero">
                        <path d="M5.30228392,12.7132969 L9.83430363,12.7132969 C9.92386923,12.7132969 10.0134348,12.7850221 10.0134348,12.8926099 L10.0134348,16.3712835 C10.0134348,16.4609401 9.94178236,16.5505966 9.83430363,16.5505966 L0.250783699,16.5505966 C0.161218092,16.5505966 0.0716524854,16.4788714 0.0716524854,16.3712835 L0.0716524854,0.573801833 C0.0716524854,0.484145296 0.143304971,0.39448876 0.250783699,0.39448876 L4.96193462,0.39448876 C5.05150022,0.39448876 5.14106583,0.466213989 5.14106583,0.573801833 L5.14106583,12.5339838 C5.12315271,12.6415716 5.19480519,12.7132969 5.30228392,12.7132969 Z" id="Shape"></path>
                        <path d="M16.1038961,4.59041466 L16.1038961,6.25802624 C16.1038961,6.34768277 16.1755486,6.43733931 16.2830273,6.43733931 L20.9404389,6.43733931 C21.0300045,6.43733931 21.1195701,6.50906454 21.1195701,6.61665238 L21.1195701,10.0773947 C21.1195701,10.1670512 21.0479176,10.2567078 20.9404389,10.2567078 L16.2830273,10.2567078 C16.1934617,10.2567078 16.1038961,10.328433 16.1038961,10.4360208 L16.1038961,12.372602 C16.1038961,12.4622586 16.1755486,12.5519151 16.2830273,12.5519151 L21.6390506,12.5519151 C21.7286162,12.5519151 21.8181818,12.6236403 21.8181818,12.7312282 L21.8181818,16.4250775 C21.8181818,16.514734 21.7465293,16.6043905 21.6390506,16.6043905 L11.2315271,16.6043905 C11.1419615,16.6043905 11.0523959,16.5326653 11.0523959,16.4250775 L11.0523959,0.573801833 C11.0523959,0.484145296 11.1240484,0.39448876 11.2315271,0.39448876 L21.6390506,0.39448876 C21.7286162,0.39448876 21.8181818,0.466213989 21.8181818,0.573801833 L21.8181818,4.23178852 C21.8181818,4.32144505 21.7465293,4.41110159 21.6390506,4.41110159 L16.2830273,4.41110159 C16.1755486,4.41110159 16.1038961,4.50075813 16.1038961,4.59041466 Z" id="Shape"></path>
                        <path d="M35.6650246,1.77519942 C36.9368562,2.76142132 37.7250336,4.07040675 37.9937304,5.72008702 C38.0116435,5.82767486 37.9220779,5.9173314 37.8145992,5.9173314 C36.9905956,5.9173314 33.9274519,5.9173314 32.9780564,5.9173314 C32.8168383,5.9173314 32.6556202,5.86353748 32.5660546,5.73801833 C32.3869234,5.50491133 32.1361397,5.32559826 31.8495298,5.1821478 C31.4912674,5.00283473 31.0434393,4.91317819 30.5239588,4.91317819 C29.5566502,4.91317819 28.8042991,5.23594172 28.2669055,5.86353748 C27.7295119,6.49113323 27.4787282,7.35183598 27.4787282,8.44564572 C27.4787282,9.70083723 27.7832512,10.6511965 28.3743842,11.2787923 C28.9655172,11.906388 29.8790864,12.2112203 31.1150918,12.2112203 C32.1540528,12.2112203 33.0138827,11.8346628 33.6945813,11.0815479 C33.80206,10.9739601 33.7124944,10.794647 33.5691894,10.794647 L30.6493506,10.794647 C30.1298701,10.794647 29.9149127,10.56154 29.9149127,10.2925704 L29.9149127,7.3876986 C29.9149127,7.29804206 29.9865652,7.20838552 30.0940439,7.20838552 L37.9758173,7.20838552 C38.0653829,7.20838552 38.1549485,7.28011075 38.1549485,7.3876986 L38.1549485,12.2291516 C38.1549485,12.2650142 38.1549485,12.3008768 38.1370354,12.3188081 C37.4384236,13.5022744 36.4890282,14.5243589 35.270936,15.3671303 C34.0349306,16.2278331 32.476489,16.6581845 30.5956113,16.6581845 C28.929691,16.6581845 27.4787282,16.3174896 26.2248097,15.6181686 C24.9888043,14.9188476 24.0394089,13.9505571 23.3766234,12.7132969 C22.7138379,11.4760367 22.3914017,10.0415321 22.3914017,8.44564572 C22.3914017,6.84975938 22.7138379,5.4331861 23.3766234,4.17799459 C24.0394089,2.92280309 24.9888043,1.95451249 26.2068966,1.27312282 C27.4249888,0.59173314 28.8759516,0.233106995 30.5418719,0.233106995 C32.6018809,0.251038302 34.3215405,0.753114905 35.6650246,1.77519942 Z" id="Shape"></path>
                        <path d="M51.6972682,1.18346628 C52.9511867,1.88278726 53.9543215,2.86900916 54.6887595,4.14213198 C55.4231975,5.39732349 55.799373,6.83182807 55.799373,8.40978311 C55.799373,9.98773815 55.4231975,11.4043114 54.6887595,12.6774342 C53.9543215,13.9326257 52.9511867,14.9188476 51.6793551,15.6360999 C50.4075235,16.3533522 49.0282132,16.7119784 47.523511,16.7119784 C46.0008957,16.7119784 44.6036722,16.3533522 43.3497537,15.6360999 C42.0779221,14.9188476 41.0747873,13.9326257 40.3403493,12.6774342 C39.5879982,11.4222427 39.2297358,9.98773815 39.2297358,8.40978311 C39.2297358,6.83182807 39.6059113,5.4152548 40.3403493,4.14213198 C41.0747873,2.88694047 42.0958352,1.90071857 43.3497537,1.18346628 C44.6036722,0.466213989 46.0188088,0.125519151 47.523511,0.125519151 C49.0461263,0.125519151 50.4433498,0.484145296 51.6972682,1.18346628 Z M45.1948052,5.77388094 C44.6394984,6.419408 44.3708016,7.29804206 44.3708016,8.40978311 C44.3708016,9.50359285 44.6394984,10.3822269 45.1948052,11.027754 C45.750112,11.673281 46.5203762,11.9960446 47.5414241,11.9960446 C48.5445589,11.9960446 49.3148231,11.673281 49.8701299,11.027754 C50.4254366,10.3822269 50.6941335,9.50359285 50.6941335,8.40978311 C50.6941335,7.29804206 50.4254366,6.419408 49.8701299,5.77388094 C49.3148231,5.12835388 48.5445589,4.80559035 47.5414241,4.80559035 C46.5203762,4.80559035 45.7321988,5.12835388 45.1948052,5.77388094 Z" id="Shape"></path>
                        <path d="M12.2704881,32.8142923 C11.7868339,33.5674072 11.0882221,34.141209 10.1925661,34.5894917 C9.27899687,35.0198431 8.20420958,35.2350188 6.93237797,35.2350188 C4.99776086,35.2350188 3.42140618,34.7867361 2.16748768,33.8722394 C0.967308554,32.9936054 0.286609942,31.7384139 0.143304971,30.0887336 C0.143304971,29.9811458 0.214957456,29.8914892 0.322436185,29.8914892 C1.16435289,29.8914892 4.58575907,29.8914892 5.35602329,29.8914892 C5.44558889,29.8914892 5.51724138,29.9632145 5.5351545,30.052871 C5.64263323,30.8777111 6.05463502,31.2901312 6.75324675,31.2901312 C7.00403045,31.2901312 7.21898791,31.218406 7.380206,31.0928868 C7.54142409,30.9494364 7.61307658,30.752192 7.61307658,30.5011537 C7.61307658,30.1245962 7.41603224,29.819764 7.0398567,29.6045883 C6.64576803,29.3894126 6.01880878,29.1383743 5.15897895,28.8335421 C4.13793103,28.4928473 3.29601433,28.1521524 2.61531572,27.8114576 C1.93461711,27.4528314 1.3434841,26.9507548 0.841916704,26.2693652 C0.340349306,25.5879755 0.0895656068,24.6914101 0.0895656068,23.5976004 C0.0895656068,22.5575845 0.358262427,21.6610192 0.895656068,20.9258356 C1.43304971,20.190652 2.16748768,19.6347815 3.09897,19.258224 C4.03045231,18.8816666 5.08732647,18.6844222 6.25167936,18.6844222 C8.18629646,18.6844222 9.70891178,19.1327049 10.8553515,20.0292702 C11.9480519,20.889973 12.5750112,22.1272332 12.700403,23.7231195 C12.700403,23.8307074 12.6287506,23.9203639 12.5212718,23.9203639 L7.41603224,23.9203639 C7.32646664,23.9203639 7.25481415,23.8486387 7.23690103,23.7589821 C7.1294223,23.0058672 6.789073,22.6293098 6.21585311,22.6293098 C6.00089566,22.6293098 5.82176444,22.701035 5.69637259,22.8265542 C5.55306762,22.9520733 5.49932826,23.1493177 5.49932826,23.400356 C5.49932826,23.7589821 5.69637259,24.0279517 6.07254814,24.2610587 C6.46663681,24.4762344 7.05776982,24.745204 7.8817734,25.032105 C8.92073444,25.3907311 9.76265114,25.7493572 10.4433498,26.1079834 C11.1240484,26.4666095 11.7151814,26.9866174 12.2167488,27.6859384 C12.7183162,28.3852594 12.987013,29.2638935 12.987013,30.3397719 C12.987013,31.2363373 12.7362293,32.0611774 12.2704881,32.8142923 Z" id="Shape"></path>
                        <path d="M27.0488133,19.0968422 L27.0488133,22.7727602 C27.0488133,22.8624168 26.9771608,22.9520733 26.869682,22.9520733 L22.9287953,22.9520733 C22.8392297,22.9520733 22.7496641,23.0237985 22.7496641,23.1313864 L22.7496641,34.9122553 C22.7496641,35.0019118 22.6780116,35.0915683 22.5705329,35.0915683 L17.859382,35.0915683 C17.7698164,35.0915683 17.6802508,35.0198431 17.6802508,34.9122553 L17.6802508,23.1313864 C17.6802508,23.0417298 17.6085983,22.9520733 17.5011196,22.9520733 L13.6139722,22.9520733 C13.5244066,22.9520733 13.434841,22.8803481 13.434841,22.7727602 L13.434841,19.1147736 C13.434841,19.025117 13.5064935,18.9354605 13.6139722,18.9354605 L26.869682,18.9354605 C26.9771608,18.9354605 27.0488133,19.0071857 27.0488133,19.0968422 Z" id="Shape"></path>
                        <path d="M33.1571876,18.9354605 C33.2467532,18.9354605 33.3363189,19.0071857 33.3363189,19.1147736 L33.3363189,28.0445646 C33.3363189,28.7976795 33.4975369,29.3714813 33.8199731,29.819764 C34.1424093,30.2501154 34.679803,30.4652911 35.3963278,30.4652911 C36.1307658,30.4652911 36.6681594,30.2501154 37.0085087,29.819764 C37.348858,29.3894126 37.5279893,28.7976795 37.5279893,28.0445646 L37.5279893,19.1147736 C37.5279893,19.025117 37.5996417,18.9354605 37.7071205,18.9354605 L42.4003583,18.9354605 C42.4899239,18.9354605 42.5794895,19.0071857 42.5794895,19.1147736 L42.5794895,28.0445646 C42.5794895,29.586657 42.2570533,30.8956424 41.630094,31.9715209 C40.9852217,33.0653306 40.1253918,33.8722394 39.0147783,34.42811 C37.9041648,34.9660492 36.6681594,35.2529501 35.3067622,35.2529501 C33.945365,35.2529501 32.7272727,34.9839805 31.6703986,34.42811 C30.6135244,33.8722394 29.7895208,33.0653306 29.1983878,31.9894522 C28.6072548,30.9135737 28.3027318,29.586657 28.3027318,28.0445646 L28.3027318,19.1147736 C28.3027318,19.025117 28.3743842,18.9354605 28.481863,18.9354605 L33.1571876,18.9354605 Z" id="Shape"></path>
                        <path d="M58.1101657,31.1108181 C57.4294671,32.3480783 56.4442454,33.3163689 55.1903269,34.0156899 C53.9184953,34.7150109 52.4496193,35.073637 50.7657859,35.073637 L44.2274966,35.073637 C44.137931,35.073637 44.0483654,35.0019118 44.0483654,34.894324 L44.0483654,19.0968422 C44.0483654,19.0071857 44.1200179,18.9175292 44.2274966,18.9175292 L50.7657859,18.9175292 C52.4496193,18.9175292 53.9364084,19.258224 55.1903269,19.9396137 C56.4621585,20.6210034 57.4294671,21.5713626 58.1101657,22.7906915 C58.7908643,24.0100204 59.1312136,25.3907311 59.1312136,26.9328235 C59.1312136,28.4928473 58.7908643,29.8735579 58.1101657,31.1108181 Z M53.0049261,29.6225196 C53.6677116,28.9949239 54.0080609,28.1162898 54.0080609,26.9507548 C54.0080609,25.8031512 53.6677116,24.9065858 53.0049261,24.27899 C52.3421406,23.6513943 51.4285714,23.3465621 50.3000448,23.3465621 L49.2610837,23.3465621 C49.1715181,23.3465621 49.0819525,23.4182873 49.0819525,23.5258751 L49.0819525,30.3756345 C49.0819525,30.4652911 49.153605,30.5549476 49.2610837,30.5549476 L50.3000448,30.5549476 C51.4285714,30.5549476 52.3421406,30.2501154 53.0049261,29.6225196 Z" id="Shape"></path>
                        <path d="M65.2754142,19.0968422 L65.2754142,34.894324 C65.2754142,34.9839805 65.2037618,35.073637 65.096283,35.073637 L60.3851321,35.073637 C60.2955665,35.073637 60.2060009,35.0019118 60.2060009,34.894324 L60.2060009,19.0968422 C60.2060009,19.0071857 60.2776534,18.9175292 60.3851321,18.9175292 L65.096283,18.9175292 C65.2037618,18.9354605 65.2754142,19.0071857 65.2754142,19.0968422 Z" id="Shape"></path>
                        <path d="M78.8535602,19.7065067 C80.1074787,20.4058277 81.1106135,21.3920496 81.8450515,22.6651724 C82.5794895,23.9203639 82.955665,25.3548685 82.955665,26.9328235 C82.955665,28.5107786 82.5794895,29.9273518 81.8450515,31.2004747 C81.1106135,32.4556662 80.1074787,33.4418881 78.8356471,34.1591404 C77.5638155,34.8763926 76.1845052,35.2350188 74.679803,35.2350188 C73.1571876,35.2350188 71.7599642,34.8763926 70.5060457,34.1591404 C69.2342141,33.4418881 68.2310793,32.4556662 67.4966413,31.2004747 C66.7442902,29.9452831 66.3860278,28.5107786 66.3860278,26.9328235 C66.3860278,25.3548685 66.7622033,23.9382952 67.4966413,22.6651724 C68.2310793,21.4099809 69.2521272,20.423759 70.5060457,19.7065067 C71.7778773,19.0071857 73.1751008,18.6485596 74.679803,18.6485596 C76.2024183,18.6485596 77.5996417,19.0071857 78.8535602,19.7065067 Z M72.3331841,24.2969214 C71.7778773,24.9424484 71.5091805,25.8210825 71.5091805,26.9328235 C71.5091805,28.0266333 71.7778773,28.9052673 72.3331841,29.5507944 C72.8884908,30.1963214 73.658755,30.519085 74.679803,30.519085 C75.6829378,30.519085 76.453202,30.1963214 77.0085087,29.5507944 C77.5638155,28.9052673 77.8325123,28.0266333 77.8325123,26.9328235 C77.8325123,25.8210825 77.5638155,24.9424484 77.0085087,24.2969214 C76.453202,23.6513943 75.6829378,23.3286308 74.679803,23.3286308 C73.6766682,23.3286308 72.8884908,23.6513943 72.3331841,24.2969214 Z" id="Shape"></path>
                    </g>
                    <g id="brick" transform="translate(0.000000, 0.519481)" fill-rule="nonzero">
                        <path d="M34.3589744,0.0358816441 L0.446220446,0.0358816441 C0.267732268,0.0358816441 0.124941725,0.179408221 0.124941725,0.358816441 L0.124941725,34.4463784 C0.124941725,34.6257866 0.267732268,34.7693132 0.446220446,34.7693132 L34.3589744,34.7693132 C34.5374625,34.7693132 34.6802531,34.6257866 34.6802531,34.4463784 L34.6802531,0.358816441 C34.6802531,0.179408221 34.5374625,0.0358816441 34.3589744,0.0358816441 Z M8.76376956,31.6655509 C5.71162171,31.6655509 3.21278721,29.1717767 3.21278721,26.0859553 C3.21278721,23.0180747 5.69377289,20.5063596 8.76376956,20.5063596 C11.8337662,20.5063596 14.3147519,23.0001339 14.3147519,26.0859553 C14.3147519,29.1538359 11.8337662,31.6655509 8.76376956,31.6655509 Z M8.76376956,14.2808944 C5.71162171,14.2808944 3.21278721,11.7871201 3.21278721,8.7012987 C3.21278721,5.63341813 5.69377289,3.12170304 8.76376956,3.12170304 C11.8337662,3.12170304 14.3147519,5.61547731 14.3147519,8.7012987 C14.3147519,11.7871201 11.8337662,14.2808944 8.76376956,14.2808944 Z M26.0414252,31.6655509 C22.9892774,31.6655509 20.4904429,29.1717767 20.4904429,26.0859553 C20.4904429,23.0180747 22.9714286,20.5063596 26.0414252,20.5063596 C29.1114219,20.5063596 31.5924076,23.0001339 31.5924076,26.0859553 C31.5924076,29.1538359 29.1114219,31.6655509 26.0414252,31.6655509 Z M26.0414252,14.2808944 C22.9892774,14.2808944 20.4904429,11.7871201 20.4904429,8.7012987 C20.4904429,5.63341813 22.9714286,3.12170304 26.0414252,3.12170304 C29.1114219,3.12170304 31.5924076,5.61547731 31.5924076,8.7012987 C31.5924076,11.7871201 29.1114219,14.2808944 26.0414252,14.2808944 Z" id="Shape"></path>
                    </g>
                </g>
            </g>
        </g>
    </g>
</svg>